<?xml version="1.0" encoding="UTF-8"?>
<svg id="Layer_1" xmlns="http://www.w3.org/2000/svg" width="130.1" height="32" xmlns:xlink="http://www.w3.org/1999/xlink" version="1.1" viewBox="0 0 130.1 32">
  <!-- Generator: Adobe Illustrator 29.2.1, SVG Export Plug-In . SVG Version: 2.1.0 Build 116)  -->
  <defs>
    <style>
      .st0 {
        fill: #fff;
      }

      .st1 {
        fill: #ec1c24;
      }
    </style>
  </defs>
  <g>
    <polygon class="st0" points="8.1 0 0 32 58 32 66.1 0 8.1 0"/>
    <polygon class="st1" points="36.8 .8 36.2 .8 28.6 31.2 57.1 31.2 64.7 .8 36.8 .8"/>
    <polygon points="8.9 .8 1.3 31.2 29 31.2 36.6 .8 8.9 .8"/>
    <path class="st0" d="M58.6,17.3c-.3,1.3-.5,2-.9,2.8-.8,1.5-2.3,2.3-4.5,2.6-.8.1-2,0-2,0l4.6,6.5h-6.7l-6.3-9h6.1c1.3,0,3.1-.4,3.5-1.3.2-.3.3-.8.4-1.2,0-.6-.6-1.1-1.6-1.1h-9.9l-3.1,12.5h-6.4l4-15.5h18.3c3.5,0,5.1,1.7,4.7,3.7"/>
    <path class="st0" d="M29.5,19.9h-10.5l-1,2.9h5.2l-.8,2.8h-8.4c-1.8,0-2.6-.5-2.4-1.7.2-1.5.8-2.7,1.3-4.1,1-2.7,2.5-3.4,8.5-3.4h9.1l1-3.1h-10.9c-8.9,0-12,1-13.7,5.4-.6,1.5-1.4,4.2-1.8,6.5-.5,2.6,1.6,3.7,3.8,3.8,3,.1,18.1,0,18.1,0l2.6-9.1Z"/>
  </g>
  <g>
    <path class="st0" d="M74.5,27.8c-.6,0-1.2,0-1.5,0-.5,0-1.1-.3-.9-1.3l1.2-5.3h6.7l-1,4.7c-.3,1.1-.5,1.9-1.5,1.9-.5,0-1.8,0-2.9,0M74.1,17.9l1.1-5c.2-.8.7-1.3,1.4-1.3h4.2c.7,0,1.5.1,1,1.7l-1,4.6h-6.7M86.2,7.8h-14.5s-1.2,0-2.4.9c-1,.8-1.4,2-1.5,2.5-.4,1.9-1,4.1-1.3,5.7-.5,2.1,1.6,2.8,1.6,2.8,0,0-2.3.2-2.9,2.6-.5,2.1-.9,3.6-1.3,5.5-.2,1.1.2,2.2.6,2.8.8,1.1,1.8,1.3,2.8,1.3h15.2c1.1,0,1.8-.4,2.6-1,.8-.6,1.2-1.5,1.5-2.6.3-1.3.6-2.6,1.3-5.7.5-2.3-1.6-3-1.6-3,0,0,2.4-.5,2.9-2.7.2-.9.4-1.8.7-3.1.5-2.3.1-3.4-.5-4.2-.7-.9-1.5-1.5-3.1-1.7"/>
    <path class="st0" d="M97.6,27.5l1.4-6.1h4.7c.7,0,1.5.8,1.3,2-.2.9-.5,2.2-.8,2.6-.4.8-1,1.5-2.1,1.5h-1.6c-1.3,0-3,0-3,0M114.1,7.8h-17.5c-1,0-1.8.4-2.5.9s-1.3,1.6-1.6,2.9c-1.2,5.2-2.4,10.3-3.6,15.5-.4,1.6-.3,2.8.1,3.5.4.7,1.3,1.3,2.6,1.3h16.1c.9,0,1.3-.3,2.1-.8,1.1-1,1.4-2.6,1.4-2.6l1.6-6.9s.2-.9,0-1.8c0-.4-.5-1.1-.6-1.3-1.1-1.2-2.6-1.3-2.8-1.3h0c-3.1,0-6.3,0-9.5,0,.3-1.5.7-2.9,1-4.5,0-.3.3-.6.5-.8.1-.1.5-.3.8-.3h10.8c-.1,0,.5-2.5.8-3.8"/>
  </g>
</svg>